<svg xmlns="http://www.w3.org/2000/svg" height="188.501" width="161.301"><defs><clipPath id="a"><path d="M0 141.376h120.976V0H0z"/></clipPath></defs><g clip-path="url(#a)" transform="matrix(1.33333 0 0 -1.33333 0 188.501)"><path d="M117.077 71.757a3.903 3.903 0 0 1-3.899-3.899V7.798H77.701v37.516a3.903 3.903 0 0 1-3.899 3.9H47.175a3.904 3.904 0 0 1-3.9-3.9V15.17c0-2.15 1.75-3.9 3.9-3.9s3.9 1.75 3.9 3.9v26.244h18.828V7.798H7.8V90.26l52.69 42.226 54.15-43.396a3.88 3.88 0 0 1 2.865-.833 3.875 3.875 0 0 1 2.615 1.437 3.905 3.905 0 0 1-.604 5.481l-56.589 45.351a3.924 3.924 0 0 1-4.876 0l-56.59-45.35a3.879 3.879 0 0 1-1.46-3.044V3.9A3.903 3.903 0 0 1 3.898 0h113.178a3.903 3.903 0 0 1 3.898 3.9v63.958a3.903 3.903 0 0 1-3.898 3.9" fill="#fce800"/></g></svg>